<svg width="57" height="17" viewBox="0 0 57 17" fill="none" xmlns="http://www.w3.org/2000/svg">
<path d="M3.276 12L0.444 3.6H1.356L4.008 11.508H3.552L6.288 3.6H7.104L9.804 11.508H9.372L12.048 3.6H12.9L10.068 12H9.132L6.552 4.5H6.792L4.2 12H3.276ZM16.5437 12.06C15.8877 12.06 15.3117 11.924 14.8157 11.652C14.3197 11.372 13.9317 10.992 13.6517 10.512C13.3717 10.024 13.2317 9.468 13.2317 8.844C13.2317 8.22 13.3637 7.668 13.6277 7.188C13.8997 6.708 14.2677 6.332 14.7317 6.06C15.2037 5.78 15.7317 5.64 16.3157 5.64C16.9077 5.64 17.4317 5.776 17.8877 6.048C18.3517 6.312 18.7157 6.688 18.9797 7.176C19.2437 7.656 19.3757 8.212 19.3757 8.844C19.3757 8.884 19.3717 8.928 19.3637 8.976C19.3637 9.016 19.3637 9.06 19.3637 9.108H13.8797V8.472H18.9077L18.5717 8.724C18.5717 8.268 18.4717 7.864 18.2717 7.512C18.0797 7.152 17.8157 6.872 17.4797 6.672C17.1437 6.472 16.7557 6.372 16.3157 6.372C15.8837 6.372 15.4957 6.472 15.1517 6.672C14.8077 6.872 14.5397 7.152 14.3477 7.512C14.1557 7.872 14.0597 8.284 14.0597 8.748V8.88C14.0597 9.36 14.1637 9.784 14.3717 10.152C14.5877 10.512 14.8837 10.796 15.2597 11.004C15.6437 11.204 16.0797 11.304 16.5677 11.304C16.9517 11.304 17.3077 11.236 17.6357 11.1C17.9717 10.964 18.2597 10.756 18.4997 10.476L18.9797 11.028C18.6997 11.364 18.3477 11.62 17.9237 11.796C17.5077 11.972 17.0477 12.06 16.5437 12.06ZM24.3619 12.06C23.8099 12.06 23.3139 11.936 22.8739 11.688C22.4339 11.432 22.0859 11.064 21.8299 10.584C21.5739 10.104 21.4459 9.524 21.4459 8.844C21.4459 8.156 21.5739 7.576 21.8299 7.104C22.0939 6.624 22.4459 6.26 22.8859 6.012C23.3259 5.764 23.8179 5.64 24.3619 5.64C24.9619 5.64 25.4979 5.776 25.9699 6.048C26.4499 6.312 26.8259 6.684 27.0979 7.164C27.3699 7.644 27.5059 8.204 27.5059 8.844C27.5059 9.476 27.3699 10.036 27.0979 10.524C26.8259 11.004 26.4499 11.38 25.9699 11.652C25.4979 11.924 24.9619 12.06 24.3619 12.06ZM21.1099 12V3.096H21.9619V7.56L21.8419 8.832L21.9259 10.104V12H21.1099ZM24.3019 11.304C24.7499 11.304 25.1499 11.204 25.5019 11.004C25.8539 10.796 26.1339 10.508 26.3419 10.14C26.5499 9.764 26.6539 9.332 26.6539 8.844C26.6539 8.348 26.5499 7.916 26.3419 7.548C26.1339 7.18 25.8539 6.896 25.5019 6.696C25.1499 6.488 24.7499 6.384 24.3019 6.384C23.8539 6.384 23.4499 6.488 23.0899 6.696C22.7379 6.896 22.4579 7.18 22.2499 7.548C22.0499 7.916 21.9499 8.348 21.9499 8.844C21.9499 9.332 22.0499 9.764 22.2499 10.14C22.4579 10.508 22.7379 10.796 23.0899 11.004C23.4499 11.204 23.8539 11.304 24.3019 11.304Z" fill="black"/>
<path d="M39.188 12V3.096H40.04V12H39.188ZM46.3587 12V10.608L46.3227 10.38V8.052C46.3227 7.516 46.1707 7.104 45.8667 6.816C45.5707 6.528 45.1267 6.384 44.5347 6.384C44.1267 6.384 43.7387 6.452 43.3707 6.588C43.0027 6.724 42.6907 6.904 42.4347 7.128L42.0507 6.492C42.3707 6.22 42.7547 6.012 43.2027 5.868C43.6507 5.716 44.1227 5.64 44.6187 5.64C45.4347 5.64 46.0627 5.844 46.5027 6.252C46.9507 6.652 47.1747 7.264 47.1747 8.088V12H46.3587ZM44.1867 12.06C43.7147 12.06 43.3027 11.984 42.9507 11.832C42.6067 11.672 42.3427 11.456 42.1587 11.184C41.9747 10.904 41.8827 10.584 41.8827 10.224C41.8827 9.896 41.9587 9.6 42.1107 9.336C42.2707 9.064 42.5267 8.848 42.8787 8.688C43.2387 8.52 43.7187 8.436 44.3187 8.436H46.4907V9.072H44.3427C43.7347 9.072 43.3107 9.18 43.0707 9.396C42.8387 9.612 42.7227 9.88 42.7227 10.2C42.7227 10.56 42.8627 10.848 43.1427 11.064C43.4227 11.28 43.8147 11.388 44.3187 11.388C44.7987 11.388 45.2107 11.28 45.5547 11.064C45.9067 10.84 46.1627 10.52 46.3227 10.104L46.5147 10.692C46.3547 11.108 46.0747 11.44 45.6747 11.688C45.2827 11.936 44.7867 12.06 44.1867 12.06ZM52.7408 12.06C52.1888 12.06 51.6928 11.936 51.2528 11.688C50.8128 11.432 50.4648 11.064 50.2088 10.584C49.9528 10.104 49.8248 9.524 49.8248 8.844C49.8248 8.156 49.9528 7.576 50.2088 7.104C50.4728 6.624 50.8248 6.26 51.2648 6.012C51.7048 5.764 52.1968 5.64 52.7408 5.64C53.3408 5.64 53.8768 5.776 54.3488 6.048C54.8288 6.312 55.2048 6.684 55.4768 7.164C55.7488 7.644 55.8848 8.204 55.8848 8.844C55.8848 9.476 55.7488 10.036 55.4768 10.524C55.2048 11.004 54.8288 11.38 54.3488 11.652C53.8768 11.924 53.3408 12.06 52.7408 12.06ZM49.4888 12V3.096H50.3408V7.56L50.2208 8.832L50.3048 10.104V12H49.4888ZM52.6808 11.304C53.1288 11.304 53.5288 11.204 53.8808 11.004C54.2328 10.796 54.5128 10.508 54.7208 10.14C54.9288 9.764 55.0328 9.332 55.0328 8.844C55.0328 8.348 54.9288 7.916 54.7208 7.548C54.5128 7.18 54.2328 6.896 53.8808 6.696C53.5288 6.488 53.1288 6.384 52.6808 6.384C52.2328 6.384 51.8288 6.488 51.4688 6.696C51.1168 6.896 50.8368 7.18 50.6288 7.548C50.4288 7.916 50.3288 8.348 50.3288 8.844C50.3288 9.332 50.4288 9.764 50.6288 10.14C50.8368 10.508 51.1168 10.796 51.4688 11.004C51.8288 11.204 52.2328 11.304 52.6808 11.304Z" fill="black"/>
<path d="M32.5 7.21915V2.5477C32.5 2.28917 32.3695 2.0481 32.1531 1.9067L31.6743 1.5939C31.1787 1.27011 31.408 0.5 32 0.5H35C35.5618 0.5 35.7668 1.23992 35.285 1.52899L34.8389 1.79665C34.6287 1.92281 34.5 2.15003 34.5 2.39524V7.21915C34.5 7.38171 34.5396 7.54182 34.6155 7.68561L38.2267 14.5335C38.5779 15.1995 38.095 16 37.3421 16H29.6579C28.905 16 28.4221 15.1995 28.7733 14.5335L32.3845 7.68561C32.4604 7.54182 32.5 7.38171 32.5 7.21915Z" stroke="black"/>
</svg>
