<svg width="67" height="27" viewBox="0 0 67 27" fill="none" xmlns="http://www.w3.org/2000/svg">
<path d="M3.012 17L0.264 8.6H2.28L4.668 16.04H3.66L6.156 8.6H7.956L10.356 16.04H9.384L11.832 8.6H13.692L10.944 17H8.856L6.732 10.472H7.284L5.1 17H3.012ZM17.3688 17.096C16.6328 17.096 15.9848 16.952 15.4248 16.664C14.8728 16.376 14.4448 15.984 14.1408 15.488C13.8368 14.984 13.6848 14.412 13.6848 13.772C13.6848 13.124 13.8328 12.552 14.1288 12.056C14.4328 11.552 14.8448 11.16 15.3648 10.88C15.8848 10.592 16.4728 10.448 17.1288 10.448C17.7608 10.448 18.3288 10.584 18.8328 10.856C19.3448 11.12 19.7488 11.504 20.0448 12.008C20.3408 12.504 20.4888 13.1 20.4888 13.796C20.4888 13.868 20.4848 13.952 20.4768 14.048C20.4688 14.136 20.4608 14.22 20.4528 14.3H15.2088V13.208H19.4688L18.7488 13.532C18.7488 13.196 18.6808 12.904 18.5448 12.656C18.4088 12.408 18.2208 12.216 17.9808 12.08C17.7408 11.936 17.4608 11.864 17.1408 11.864C16.8208 11.864 16.5368 11.936 16.2888 12.08C16.0488 12.216 15.8608 12.412 15.7248 12.668C15.5888 12.916 15.5208 13.212 15.5208 13.556V13.844C15.5208 14.196 15.5968 14.508 15.7488 14.78C15.9088 15.044 16.1288 15.248 16.4088 15.392C16.6968 15.528 17.0328 15.596 17.4168 15.596C17.7608 15.596 18.0608 15.544 18.3168 15.44C18.5808 15.336 18.8208 15.18 19.0368 14.972L20.0328 16.052C19.7368 16.388 19.3648 16.648 18.9168 16.832C18.4688 17.008 17.9528 17.096 17.3688 17.096ZM25.5511 17.096C24.9831 17.096 24.4951 16.976 24.0871 16.736C23.6791 16.496 23.3671 16.132 23.1511 15.644C22.9351 15.148 22.8271 14.524 22.8271 13.772C22.8271 13.012 22.9391 12.388 23.1631 11.9C23.3951 11.412 23.7151 11.048 24.1231 10.808C24.5311 10.568 25.0071 10.448 25.5511 10.448C26.1591 10.448 26.7031 10.584 27.1831 10.856C27.6711 11.128 28.0551 11.512 28.3351 12.008C28.6231 12.504 28.7671 13.092 28.7671 13.772C28.7671 14.444 28.6231 15.028 28.3351 15.524C28.0551 16.02 27.6711 16.408 27.1831 16.688C26.7031 16.96 26.1591 17.096 25.5511 17.096ZM21.7351 17V8.096H23.6071V11.852L23.4871 13.76L23.5231 15.68V17H21.7351ZM25.2271 15.56C25.5391 15.56 25.8151 15.488 26.0551 15.344C26.3031 15.2 26.4991 14.996 26.6431 14.732C26.7951 14.46 26.8711 14.14 26.8711 13.772C26.8711 13.396 26.7951 13.076 26.6431 12.812C26.4991 12.548 26.3031 12.344 26.0551 12.2C25.8151 12.056 25.5391 11.984 25.2271 11.984C24.9151 11.984 24.6351 12.056 24.3871 12.2C24.1391 12.344 23.9431 12.548 23.7991 12.812C23.6551 13.076 23.5831 13.396 23.5831 13.772C23.5831 14.14 23.6551 14.46 23.7991 14.732C23.9431 14.996 24.1391 15.2 24.3871 15.344C24.6351 15.488 24.9151 15.56 25.2271 15.56Z" fill="#fff"/>
<path d="M47.864 17V8.096H49.736V17H47.864ZM55.4334 17V15.74L55.3134 15.464V13.208C55.3134 12.808 55.1894 12.496 54.9414 12.272C54.7014 12.048 54.3294 11.936 53.8254 11.936C53.4814 11.936 53.1414 11.992 52.8054 12.104C52.4774 12.208 52.1974 12.352 51.9654 12.536L51.2934 11.228C51.6454 10.98 52.0694 10.788 52.5654 10.652C53.0614 10.516 53.5654 10.448 54.0774 10.448C55.0614 10.448 55.8254 10.68 56.3694 11.144C56.9134 11.608 57.1854 12.332 57.1854 13.316V17H55.4334ZM53.4654 17.096C52.9614 17.096 52.5294 17.012 52.1694 16.844C51.8094 16.668 51.5334 16.432 51.3414 16.136C51.1494 15.84 51.0534 15.508 51.0534 15.14C51.0534 14.756 51.1454 14.42 51.3294 14.132C51.5214 13.844 51.8214 13.62 52.2294 13.46C52.6374 13.292 53.1694 13.208 53.8254 13.208H55.5414V14.3H54.0294C53.5894 14.3 53.2854 14.372 53.1174 14.516C52.9574 14.66 52.8774 14.84 52.8774 15.056C52.8774 15.296 52.9694 15.488 53.1534 15.632C53.3454 15.768 53.6054 15.836 53.9334 15.836C54.2454 15.836 54.5254 15.764 54.7734 15.62C55.0214 15.468 55.2014 15.248 55.3134 14.96L55.6014 15.824C55.4654 16.24 55.2174 16.556 54.8574 16.772C54.4974 16.988 54.0334 17.096 53.4654 17.096ZM62.6956 17.096C62.1276 17.096 61.6396 16.976 61.2316 16.736C60.8236 16.496 60.5116 16.132 60.2956 15.644C60.0796 15.148 59.9716 14.524 59.9716 13.772C59.9716 13.012 60.0836 12.388 60.3076 11.9C60.5396 11.412 60.8596 11.048 61.2676 10.808C61.6756 10.568 62.1516 10.448 62.6956 10.448C63.3036 10.448 63.8476 10.584 64.3276 10.856C64.8156 11.128 65.1996 11.512 65.4796 12.008C65.7676 12.504 65.9116 13.092 65.9116 13.772C65.9116 14.444 65.7676 15.028 65.4796 15.524C65.1996 16.02 64.8156 16.408 64.3276 16.688C63.8476 16.96 63.3036 17.096 62.6956 17.096ZM58.8796 17V8.096H60.7516V11.852L60.6316 13.76L60.6676 15.68V17H58.8796ZM62.3716 15.56C62.6836 15.56 62.9596 15.488 63.1996 15.344C63.4476 15.2 63.6436 14.996 63.7876 14.732C63.9396 14.46 64.0156 14.14 64.0156 13.772C64.0156 13.396 63.9396 13.076 63.7876 12.812C63.6436 12.548 63.4476 12.344 63.1996 12.2C62.9596 12.056 62.6836 11.984 62.3716 11.984C62.0596 11.984 61.7796 12.056 61.5316 12.2C61.2836 12.344 61.0876 12.548 60.9436 12.812C60.7996 13.076 60.7276 13.396 60.7276 13.772C60.7276 14.14 60.7996 14.46 60.9436 14.732C61.0876 14.996 61.2836 15.2 61.5316 15.344C61.7796 15.488 62.0596 15.56 62.3716 15.56Z" fill="#fff"/>
<path d="M35.7727 11.9737V4.19574C35.7727 3.8471 35.5912 3.52364 35.2935 3.34206L34.4036 2.79914C33.5665 2.28843 33.9285 1 34.9091 1H40.0909C41.0197 1 41.342 2.23454 40.5317 2.68853L39.7385 3.13293C39.4228 3.30982 39.2273 3.64346 39.2273 4.00534V11.9737C39.2273 12.146 39.2718 12.3154 39.3565 12.4654L46.1576 24.5083C46.534 25.1749 46.0524 26 45.2868 26H29.7132C28.9476 26 28.466 25.1749 28.8424 24.5083L35.6435 12.4654C35.7282 12.3154 35.7727 12.146 35.7727 11.9737Z" stroke="#fff" stroke-width="2"/>
</svg>
