<?xml version="1.0" standalone="no"?>
<!DOCTYPE svg PUBLIC "-//W3C//DTD SVG 20010904//EN"
 "http://www.w3.org/TR/2001/REC-SVG-20010904/DTD/svg10.dtd">
<svg version="1.0" xmlns="http://www.w3.org/2000/svg"
 width="320.000000pt" height="390.000000pt" viewBox="0 0 320.000000 390.000000"
 preserveAspectRatio="xMidYMid meet">

<g transform="translate(0.000000,390.000000) scale(0.100000,-0.100000)"
fill="#000000" stroke="none">
<path d="M1079 3873 c-41 -35 -59 -79 -59 -148 0 -61 19 -108 50 -125 20 -10
20 -22 20 -593 l0 -583 -527 -949 c-290 -523 -536 -975 -546 -1005 -54 -156
42 -346 218 -435 l60 -30 1305 0 1305 0 57 28 c85 42 161 116 200 195 28 57
33 77 33 142 0 42 -6 90 -14 110 -8 19 -243 447 -521 950 -279 503 -517 934
-529 957 -21 42 -21 50 -21 622 0 569 0 581 20 591 31 17 50 64 50 125 0 69
-18 113 -59 148 l-33 27 -488 0 -488 0 -33 -27z m961 -93 c14 -14 20 -33 20
-64 0 -48 -19 -76 -51 -76 -19 0 -19 -15 -19 -658 l0 -658 467 -859 c257 -473
478 -887 491 -920 77 -188 -28 -354 -250 -395 -36 -7 -433 -9 -1129 -8 -1044
3 -1075 4 -1122 23 -109 45 -198 146 -213 240 -13 93 -4 112 496 1035 l480
884 0 658 0 658 -25 0 c-31 0 -45 26 -45 84 0 79 -15 76 462 76 405 0 419 -1
438 -20z"/>
<path d="M1756 3598 c-14 -20 -16 -92 -16 -588 0 -311 4 -570 8 -576 4 -6 17
-16 30 -23 19 -10 28 -10 48 4 l24 15 0 583 c0 440 -3 586 -12 595 -20 20 -65
14 -82 -10z"/>
<path d="M1911 2045 c-18 -8 -71 -38 -117 -65 -110 -67 -199 -107 -282 -126
-87 -21 -243 -14 -329 14 l-62 20 -344 -632 c-189 -347 -349 -646 -356 -665
-38 -116 17 -238 140 -306 l54 -30 1005 0 c1001 0 1005 0 1051 21 62 29 118
81 140 129 22 48 24 128 5 183 -15 43 -703 1354 -739 1409 -40 60 -98 77 -166
48z m-47 -465 c29 -28 25 -78 -8 -107 -30 -26 -44 -28 -80 -12 -36 17 -54 65
-35 98 29 51 82 60 123 21z m-542 -207 c45 -40 58 -100 33 -155 -7 -17 -5 -17
29 -3 72 30 159 15 223 -40 54 -46 77 -105 71 -185 -6 -80 -43 -135 -117 -172
-93 -47 -178 -33 -252 41 -73 72 -88 175 -40 257 l19 32 -41 0 c-111 -2 -174
105 -116 198 11 19 21 34 22 34 1 0 19 6 41 14 45 16 97 7 128 -21z"/>
</g>
</svg>
